# xmcd
#
# Track frame offsets: 
#        150
#        9410
#        18947
#        28937
#        44600
#        54680
#        74330
#        87815
#        96727
#        115357
#        125602
#
# Disc length: 1943 seconds
#
# Revision: 1
# Processed by: cddbd v1.5.2PL0 Copyright (c) Steve Scherf et al.
# Submitted via: ExactAudioCopy v0.95b4
#
DISCID=9a07950b
DTITLE=Butch Hancock - West Texas Waltzes
DYEAR=1978
DGENRE=Country
TTITLE0=Dry Land Farm
TTITLE1=Where the West Winds Have Blow'd
TTITLE2=You've Never Seen Me Cry
TTITLE3=I Wish I Was Only Workin'
TTITLE4=Dirt Road Song
TTITLE5=West Texas Waltz
TTITLE6=They Say It's a Good Land
TTITLE7=I Grew To Be a Stranger
TTITLE8=Texas Air
TTITLE9=Little Coyote Waltz
TTITLE10=Just One Thunderstorm
EXTD=YEAR: 1978
EXTT0=
EXTT1=
EXTT2=
EXTT3=
EXTT4=
EXTT5=
EXTT6=
EXTT7=
EXTT8=
EXTT9=
EXTT10=
PLAYORDER=
